<mxfile host="Electron" agent="Mozilla/5.0 (Windows NT 10.0; Win64; x64) AppleWebKit/537.36 (KHTML, like Gecko) draw.io/28.2.5 Chrome/138.0.7204.251 Electron/37.6.1 Safari/537.36" version="28.2.5">
  <diagram name="Page-1" id="5SKAm97IUk-dDTujLmm5">
    <mxGraphModel dx="868" dy="562" grid="1" gridSize="10" guides="1" tooltips="1" connect="1" arrows="1" fold="1" page="1" pageScale="1" pageWidth="850" pageHeight="1100" math="1" shadow="0">
      <root>
        <mxCell id="0" />
        <mxCell id="1" parent="0" />
        <mxCell id="xh8xWR9HqtXgIoL8D_X5-12" value="\(n=4\)" style="whiteSpace=wrap;html=1;aspect=fixed;verticalAlign=top;labelPosition=center;verticalLabelPosition=bottom;align=center;" vertex="1" parent="1">
          <mxGeometry x="130" y="252" width="144" height="144" as="geometry" />
        </mxCell>
        <mxCell id="32SLlUpQdxrGUWhNNxCO-5" value="" style="whiteSpace=wrap;html=1;aspect=fixed;verticalAlign=top;labelPosition=center;verticalLabelPosition=bottom;align=center;" parent="1" vertex="1">
          <mxGeometry x="130" y="252" width="72" height="72" as="geometry" />
        </mxCell>
        <mxCell id="xh8xWR9HqtXgIoL8D_X5-5" value="" style="whiteSpace=wrap;html=1;aspect=fixed;verticalAlign=top;labelPosition=center;verticalLabelPosition=bottom;align=center;" vertex="1" parent="1">
          <mxGeometry x="202" y="252" width="72" height="72" as="geometry" />
        </mxCell>
        <mxCell id="xh8xWR9HqtXgIoL8D_X5-6" value="" style="whiteSpace=wrap;html=1;aspect=fixed;verticalAlign=top;labelPosition=center;verticalLabelPosition=bottom;align=center;" vertex="1" parent="1">
          <mxGeometry x="130" y="324" width="72" height="72" as="geometry" />
        </mxCell>
        <mxCell id="xh8xWR9HqtXgIoL8D_X5-13" value="\(n=7\)" style="whiteSpace=wrap;html=1;aspect=fixed;labelPosition=center;verticalLabelPosition=bottom;align=center;verticalAlign=top;" vertex="1" parent="1">
          <mxGeometry x="330" y="252" width="144" height="144" as="geometry" />
        </mxCell>
        <mxCell id="xh8xWR9HqtXgIoL8D_X5-14" value="" style="whiteSpace=wrap;html=1;aspect=fixed;verticalAlign=top;labelPosition=center;verticalLabelPosition=bottom;align=center;" vertex="1" parent="1">
          <mxGeometry x="330" y="252" width="72" height="72" as="geometry" />
        </mxCell>
        <mxCell id="xh8xWR9HqtXgIoL8D_X5-15" value="" style="whiteSpace=wrap;html=1;aspect=fixed;verticalAlign=top;labelPosition=center;verticalLabelPosition=bottom;align=center;" vertex="1" parent="1">
          <mxGeometry x="402" y="252" width="72" height="72" as="geometry" />
        </mxCell>
        <mxCell id="xh8xWR9HqtXgIoL8D_X5-16" value="" style="whiteSpace=wrap;html=1;aspect=fixed;verticalAlign=top;labelPosition=center;verticalLabelPosition=bottom;align=center;" vertex="1" parent="1">
          <mxGeometry x="330" y="324" width="72" height="72" as="geometry" />
        </mxCell>
        <mxCell id="xh8xWR9HqtXgIoL8D_X5-17" value="" style="whiteSpace=wrap;html=1;aspect=fixed;verticalAlign=top;labelPosition=center;verticalLabelPosition=bottom;align=center;" vertex="1" parent="1">
          <mxGeometry x="402" y="324" width="36" height="36" as="geometry" />
        </mxCell>
        <mxCell id="xh8xWR9HqtXgIoL8D_X5-18" value="" style="whiteSpace=wrap;html=1;aspect=fixed;verticalAlign=top;labelPosition=center;verticalLabelPosition=bottom;align=center;" vertex="1" parent="1">
          <mxGeometry x="438" y="324" width="36" height="36" as="geometry" />
        </mxCell>
        <mxCell id="xh8xWR9HqtXgIoL8D_X5-19" value="" style="whiteSpace=wrap;html=1;aspect=fixed;verticalAlign=top;labelPosition=center;verticalLabelPosition=bottom;align=center;" vertex="1" parent="1">
          <mxGeometry x="402" y="360" width="36" height="36" as="geometry" />
        </mxCell>
        <mxCell id="xh8xWR9HqtXgIoL8D_X5-20" value="\(n=10\)" style="whiteSpace=wrap;html=1;aspect=fixed;labelPosition=center;verticalLabelPosition=bottom;align=center;verticalAlign=top;" vertex="1" parent="1">
          <mxGeometry x="530" y="252" width="144" height="144" as="geometry" />
        </mxCell>
        <mxCell id="xh8xWR9HqtXgIoL8D_X5-21" value="" style="whiteSpace=wrap;html=1;aspect=fixed;verticalAlign=top;labelPosition=center;verticalLabelPosition=bottom;align=center;" vertex="1" parent="1">
          <mxGeometry x="530" y="252" width="72" height="72" as="geometry" />
        </mxCell>
        <mxCell id="xh8xWR9HqtXgIoL8D_X5-22" value="" style="whiteSpace=wrap;html=1;aspect=fixed;verticalAlign=top;labelPosition=center;verticalLabelPosition=bottom;align=center;" vertex="1" parent="1">
          <mxGeometry x="602" y="252" width="72" height="72" as="geometry" />
        </mxCell>
        <mxCell id="xh8xWR9HqtXgIoL8D_X5-23" value="" style="whiteSpace=wrap;html=1;aspect=fixed;verticalAlign=top;labelPosition=center;verticalLabelPosition=bottom;align=center;" vertex="1" parent="1">
          <mxGeometry x="530" y="324" width="72" height="72" as="geometry" />
        </mxCell>
        <mxCell id="xh8xWR9HqtXgIoL8D_X5-24" value="" style="whiteSpace=wrap;html=1;aspect=fixed;verticalAlign=top;labelPosition=center;verticalLabelPosition=bottom;align=center;" vertex="1" parent="1">
          <mxGeometry x="602" y="324" width="36" height="36" as="geometry" />
        </mxCell>
        <mxCell id="xh8xWR9HqtXgIoL8D_X5-25" value="" style="whiteSpace=wrap;html=1;aspect=fixed;verticalAlign=top;labelPosition=center;verticalLabelPosition=bottom;align=center;" vertex="1" parent="1">
          <mxGeometry x="638" y="324" width="36" height="36" as="geometry" />
        </mxCell>
        <mxCell id="xh8xWR9HqtXgIoL8D_X5-26" value="" style="whiteSpace=wrap;html=1;aspect=fixed;verticalAlign=top;labelPosition=center;verticalLabelPosition=bottom;align=center;" vertex="1" parent="1">
          <mxGeometry x="602" y="360" width="36" height="36" as="geometry" />
        </mxCell>
        <mxCell id="xh8xWR9HqtXgIoL8D_X5-27" value="" style="whiteSpace=wrap;html=1;aspect=fixed;verticalAlign=top;labelPosition=center;verticalLabelPosition=bottom;align=center;" vertex="1" parent="1">
          <mxGeometry x="638" y="360" width="18" height="18" as="geometry" />
        </mxCell>
        <mxCell id="xh8xWR9HqtXgIoL8D_X5-28" value="" style="whiteSpace=wrap;html=1;aspect=fixed;verticalAlign=top;labelPosition=center;verticalLabelPosition=bottom;align=center;" vertex="1" parent="1">
          <mxGeometry x="656" y="360" width="18" height="18" as="geometry" />
        </mxCell>
        <mxCell id="xh8xWR9HqtXgIoL8D_X5-29" value="" style="whiteSpace=wrap;html=1;aspect=fixed;verticalAlign=top;labelPosition=center;verticalLabelPosition=bottom;align=center;" vertex="1" parent="1">
          <mxGeometry x="638" y="378" width="18" height="18" as="geometry" />
        </mxCell>
        <mxCell id="xh8xWR9HqtXgIoL8D_X5-31" value="&lt;span style=&quot;font-size: 29px; text-wrap-mode: nowrap;&quot;&gt;\(\cdots\)&lt;/span&gt;" style="rounded=0;whiteSpace=wrap;html=1;fillColor=none;strokeColor=none;" vertex="1" parent="1">
          <mxGeometry x="710" y="309" width="44" height="30" as="geometry" />
        </mxCell>
      </root>
    </mxGraphModel>
  </diagram>
</mxfile>
